<svg width="21" height="21" viewBox="0 0 21 21" fill="none" xmlns="http://www.w3.org/2000/svg">
<path d="M13.4435 2.25391C13.7887 2.25391 14.0685 2.53373 14.0685 2.87891V3.9209H15.1105C16.376 3.92107 17.4015 4.94735 17.4015 6.21289V16.2129C17.4011 17.4781 16.3758 18.5037 15.1105 18.5039H5.11047C3.84506 18.5039 2.81883 17.4782 2.81848 16.2129V6.21289C2.81848 4.94725 3.84484 3.92092 5.11047 3.9209H6.15149V2.87891C6.15149 2.53385 6.43148 2.2541 6.77649 2.25391C7.12167 2.25391 7.40149 2.53373 7.40149 2.87891V3.9209H12.8185V2.87891C12.8185 2.53374 13.0983 2.25393 13.4435 2.25391ZM4.06848 10.1709V16.2129C4.06883 16.7879 4.53541 17.2539 5.11047 17.2539H15.1105C15.6854 17.2537 16.1511 16.7878 16.1515 16.2129V10.1709H4.06848ZM5.11047 5.1709C4.5352 5.17092 4.06848 5.63761 4.06848 6.21289V8.9209H16.1515V6.21289C16.1515 5.6377 15.6856 5.17107 15.1105 5.1709H14.0685V6.21191C14.0685 6.55709 13.7887 6.83691 13.4435 6.83691C13.0983 6.83689 12.8185 6.55708 12.8185 6.21191V5.1709H7.40149V6.21191C7.40149 6.55709 7.12167 6.83691 6.77649 6.83691C6.43148 6.83672 6.15149 6.55697 6.15149 6.21191V5.1709H5.11047Z" fill="#282828"/>
</svg>
