<svg width="32" height="30" viewBox="0 0 32 30" fill="none" xmlns="http://www.w3.org/2000/svg">
<g clip-path="url(#clip0_2_447)">
<g clip-path="url(#clip1_2_447)">
<path d="M27.5567 6.29558V23.4309C27.5567 24.7829 26.4607 25.8789 25.1087 25.8789H20.5187C20.1807 25.8789 19.9068 25.605 19.9068 25.2669V17.9231H22.771C23.0618 17.9233 23.3125 17.7185 23.3707 17.4336L23.8113 15.2305C23.8295 15.1415 23.8072 15.0489 23.7505 14.978C23.6936 14.9072 23.6083 14.865 23.5175 14.8633H19.9068V10.8854C19.9068 10.7164 20.0439 10.5794 20.2128 10.5794H23.2727C23.6108 10.5794 23.8847 10.3054 23.8847 9.96745V8.13152C23.8847 7.79353 23.6108 7.51953 23.2727 7.51953H20.2128C18.1848 7.51953 16.5408 9.16349 16.5408 11.1914V14.8633H15.0353C14.6973 14.8633 14.4233 15.1372 14.4233 15.4753V17.3112C14.4233 17.6492 14.6973 17.9231 15.0353 17.9231H16.5408V25.2669C16.5408 25.605 16.2669 25.8789 15.9288 25.8789H7.97289C6.6209 25.8789 5.5249 24.7829 5.5249 23.4309V6.29558C5.5249 4.94362 6.6209 3.84766 7.97289 3.84766H25.1087C26.4607 3.84766 27.5567 4.94362 27.5567 6.29558Z" fill="white"/>
</g>
</g>
<defs>
<clipPath id="clip0_2_447">
<rect width="30.8906" height="29.4062" fill="white" transform="translate(0.632812 0.175781)"/>
</clipPath>
<clipPath id="clip1_2_447">
<rect width="30.875" height="29.375" fill="white" transform="translate(0.632812 0.175781)"/>
</clipPath>
</defs>
</svg>
