<svg width="32" height="30" viewBox="0 0 32 30" fill="none" xmlns="http://www.w3.org/2000/svg">
<g clip-path="url(#clip0_2_439)">
<g clip-path="url(#clip1_2_439)">
<path fill-rule="evenodd" clip-rule="evenodd" d="M11.7983 3.84766H21.5902C24.9701 3.84766 27.7102 6.58758 27.7102 9.96745V19.7591C27.7102 23.139 24.9701 25.8789 21.5902 25.8789H11.7983C8.41834 25.8789 5.67834 23.139 5.67834 19.7591V9.96745C5.67834 6.58758 8.41834 3.84766 11.7983 3.84766ZM22.5137 10.2715C23.1897 10.2715 23.7377 9.72354 23.7377 9.04756C23.7377 8.3716 23.1897 7.82361 22.5137 7.82361C21.8377 7.82361 21.2897 8.3716 21.2897 9.04756C21.2897 9.72354 21.8377 10.2715 22.5137 10.2715ZM16.6956 9.35548C13.6536 9.35548 11.1876 11.8214 11.1876 14.8633C11.1876 17.9052 13.6536 20.3711 16.6956 20.3711C19.7374 20.3711 22.2035 17.9052 22.2035 14.8633C22.2068 13.4015 21.6275 11.9987 20.5939 10.9651C19.5602 9.93147 18.1573 9.35222 16.6956 9.35548ZM13.3294 14.8614C13.3294 16.7204 14.8364 18.2273 16.6954 18.2273C18.5543 18.2273 20.0613 16.7204 20.0613 14.8614C20.0613 13.0024 18.5543 11.4955 16.6954 11.4955C14.8364 11.4955 13.3294 13.0024 13.3294 14.8614Z" fill="white"/>
</g>
</g>
<defs>
<clipPath id="clip0_2_439">
<rect width="30.8906" height="29.4062" fill="white" transform="translate(0.632812 0.175781)"/>
</clipPath>
<clipPath id="clip1_2_439">
<rect width="30.875" height="29.375" fill="white" transform="translate(0.632812 0.175781)"/>
</clipPath>
</defs>
</svg>
