<svg width="32" height="32" viewBox="0 0 32 32" fill="none" xmlns="http://www.w3.org/2000/svg">
<g clip-path="url(#clip0_2_455)">
<g clip-path="url(#clip1_2_455)">
<path fill-rule="evenodd" clip-rule="evenodd" d="M26.8711 24.6341C26.8711 25.8584 26.0165 26.883 24.8716 27.1431V27.2015H24.4692C24.413 27.2052 24.3565 27.207 24.2994 27.207H19.4777C19.4491 27.207 19.4209 27.2052 19.3931 27.2015H14.7405C14.7128 27.2052 14.6846 27.207 14.6559 27.207H6.29819C4.87791 27.207 3.72656 26.0551 3.72656 24.6341V6.6237C3.72656 5.20271 4.87791 4.05078 6.29819 4.05078H24.2994C25.7198 4.05078 26.8711 5.20271 26.8711 6.6237V24.6341ZM20.4113 10.6041C20.5186 10.6741 20.6292 10.7386 20.7429 10.7975C21.4826 11.1672 22.2053 11.2798 22.5611 11.2411V14.12C22.5611 14.12 21.5456 14.0777 20.7917 13.8772C19.7411 13.5955 19.0675 13.1628 19.0675 13.1628C19.0675 13.1628 18.6 12.8529 18.565 12.8318V18.7808C18.565 19.1115 18.4777 19.9389 18.2158 20.6287C17.9864 21.2185 17.6584 21.7649 17.2458 22.2443C17.2458 22.2443 16.6 23.0468 15.4659 23.5852C14.5205 24.0343 13.6794 24.059 13.3454 24.0687C13.3181 24.0695 13.2942 24.0703 13.2739 24.0711C13.2739 24.0711 11.721 24.1337 10.3204 23.1797L10.3134 23.1726V23.1797C9.83989 22.8486 9.41762 22.4492 9.06021 21.9946C8.61698 21.4278 8.34501 20.7557 8.27482 20.5587V20.5516C8.16322 20.2171 7.92915 19.4077 7.96424 18.6264C8.02003 17.25 8.48082 16.4019 8.60295 16.1908C8.92387 15.612 9.3431 15.0939 9.84176 14.6596C10.4108 14.1814 11.0726 13.8266 11.7854 13.6176C12.4981 13.4086 13.2463 13.3499 13.9828 13.4453L13.9793 16.398C13.7367 16.3188 13.4831 16.2785 13.2279 16.2787C11.88 16.2787 10.7875 17.3804 10.7875 18.7411C10.7875 20.1018 11.88 21.2035 13.2279 21.2035C13.6476 21.204 14.0602 21.0949 14.425 20.8869C14.775 20.6876 15.0708 20.4051 15.2863 20.0643C15.5018 19.7235 15.6305 19.3348 15.661 18.9325V18.9262C15.6628 18.9177 15.6627 18.9092 15.6627 18.9012C15.6631 18.8947 15.6635 18.8887 15.6639 18.8827C15.6648 18.8703 15.6655 18.8586 15.6655 18.8462C15.6719 18.6993 15.6719 18.5505 15.6719 18.3999V7.18631H18.565C18.5604 7.18631 18.5303 7.4642 18.6033 7.8937H18.5997C18.687 8.41115 18.9244 9.1502 19.5596 9.87872C19.8134 10.1539 20.0993 10.3974 20.4113 10.6041Z" fill="white"/>
</g>
</g>
<defs>
<clipPath id="clip0_2_455">
<rect width="30.8906" height="30.8906" fill="white" transform="translate(0.632812 0.175781)"/>
</clipPath>
<clipPath id="clip1_2_455">
<rect width="30.875" height="30.875" fill="white" transform="translate(0.632812 0.191406)"/>
</clipPath>
</defs>
</svg>
