<svg width="32" height="30" viewBox="0 0 32 30" fill="none" xmlns="http://www.w3.org/2000/svg">
<g clip-path="url(#clip0_2_443)">
<g clip-path="url(#clip1_2_443)">
<path d="M27.5899 8.08783C26.9583 8.93034 26.1948 9.66527 25.329 10.2642C25.329 10.4843 25.329 10.7044 25.329 10.9367C25.3359 14.9335 23.7393 18.7659 20.8973 21.5747C18.0552 24.3834 14.2054 25.9338 10.2109 25.8781C7.90154 25.8858 5.62177 25.3585 3.55016 24.3376C3.43846 24.2887 3.36642 24.1782 3.36683 24.0563V23.9218C3.36683 23.7463 3.5091 23.6039 3.6846 23.6039C5.95463 23.529 8.14366 22.7421 9.942 21.3541C7.88732 21.3127 6.03863 20.0955 5.18785 18.224C5.14487 18.1218 5.15825 18.0045 5.22314 17.9146C5.28805 17.8247 5.39509 17.7752 5.5056 17.7839C6.13006 17.8466 6.76077 17.7886 7.36327 17.6126C5.09506 17.1419 3.39076 15.2588 3.14685 12.9542C3.13818 12.8436 3.18773 12.7365 3.27759 12.6716C3.36745 12.6067 3.48464 12.5933 3.58682 12.6363C4.1955 12.9048 4.85258 13.0463 5.51783 13.052C3.53033 11.7475 2.67187 9.26643 3.42795 7.01186C3.50598 6.79278 3.69349 6.63094 3.92155 6.5858C4.14959 6.54068 4.38457 6.61891 4.5401 6.79176C7.22209 9.64613 10.9072 11.347 14.8184 11.5358C14.7182 11.1361 14.6689 10.7253 14.6717 10.3132C14.7083 8.15218 16.0455 6.22715 18.0571 5.43928C20.0688 4.65141 22.3567 5.15663 23.85 6.71841C24.868 6.52449 25.8521 6.1826 26.771 5.70357C26.8383 5.66155 26.9238 5.66155 26.991 5.70357C27.033 5.77091 27.033 5.85632 26.991 5.92366C26.5458 6.9429 25.794 7.79777 24.84 8.36905C25.6754 8.27218 26.4961 8.07513 27.2843 7.78216C27.3507 7.73698 27.438 7.73698 27.5044 7.78216C27.5599 7.8076 27.6015 7.85624 27.6179 7.91514C27.6345 7.97403 27.6242 8.03721 27.5899 8.08783Z" fill="white"/>
</g>
</g>
<defs>
<clipPath id="clip0_2_443">
<rect width="30.8906" height="29.4062" fill="white" transform="translate(0.132812 0.175781)"/>
</clipPath>
<clipPath id="clip1_2_443">
<rect width="30.875" height="29.375" fill="white" transform="translate(0.132812 0.175781)"/>
</clipPath>
</defs>
</svg>
