<svg width="32" height="30" viewBox="0 0 32 30" fill="none" xmlns="http://www.w3.org/2000/svg">
<g clip-path="url(#clip0_2_451)">
<g clip-path="url(#clip1_2_451)">
<path fill-rule="evenodd" clip-rule="evenodd" d="M23.2424 5.48826L25.0295 5.67185C27.1451 5.91098 28.7338 7.71675 28.7014 9.84556V19.882C28.7338 22.0108 27.1451 23.8165 25.0295 24.0558L23.3158 24.2394C17.969 24.79 12.5796 24.79 7.23266 24.2394L5.44565 24.0558C3.32999 23.8165 1.74131 22.0108 1.77368 19.882V9.84556C1.74131 7.71675 3.32999 5.91098 5.44565 5.67185L7.15922 5.48826C12.5062 4.93751 17.8956 4.93751 23.2424 5.48826ZM14.1482 18.8049L18.9095 15.6227H18.9829C19.2395 15.4555 19.3943 15.17 19.3943 14.8638C19.3943 14.5576 19.2395 14.2721 18.9829 14.1049L14.2216 10.9226C13.9405 10.7326 13.5775 10.7131 13.2777 10.872C12.9779 11.0309 12.7902 11.3422 12.7896 11.6815V18.0461C12.8054 18.3619 12.9826 18.6474 13.2588 18.8016C13.5349 18.9558 13.871 18.9572 14.1482 18.8049Z" fill="white"/>
</g>
</g>
<defs>
<clipPath id="clip0_2_451">
<rect width="30.8906" height="29.4062" fill="white" transform="translate(0.132812 0.175781)"/>
</clipPath>
<clipPath id="clip1_2_451">
<rect width="30.875" height="29.375" fill="white" transform="translate(0.132812 0.175781)"/>
</clipPath>
</defs>
</svg>
